<?xml version="1.0" encoding="utf-8"?>
<!-- Generator: Adobe Illustrator 26.0.3, SVG Export Plug-In . SVG Version: 6.00 Build 0)  -->
<svg version="1.1" id="Слой_1" xmlns="http://www.w3.org/2000/svg" xmlns:xlink="http://www.w3.org/1999/xlink" x="0px" y="0px"
	 viewBox="0 0 214.9 364.3" style="enable-background:new 0 0 214.9 364.3;" xml:space="preserve">
<style type="text/css">
	.st0{fill:#07BB5C;}
</style>
<path class="st0" d="M143.2,183.5c-12.8-13.8-25.2-27.9-38.6-41.2c-31.2-31-62.9-61.5-94.4-92.3C-3.1,37-2.9,18.1,10.3,6.8
	C21.9-3.1,38-2.3,49.6,9C69.8,28.6,90,48.3,110.1,68c31.3,30.5,62.5,61,93.8,91.5c14.8,14.4,14.8,30.5,0,44.9
	c-51.1,50-102.3,100-153.4,150c-7.7,7.5-16.4,11.5-27.1,9.4c-11-2.1-18.7-8.8-21.9-19.6c-3.3-11-0.7-20.8,7.5-28.9
	c21.4-21.2,43-42.2,64.7-63.3c22.8-22.2,45.6-44.5,68.3-66.7c1-1,2-2.1,3-3.2L143.2,183.5z"/>
</svg>
